<?xml version="1.0" encoding="UTF-8" standalone="no"?>
<!-- Created with Inkscape (http://www.inkscape.org/) -->

<svg
   xmlns:dc="http://purl.org/dc/elements/1.1/"
   xmlns:cc="http://creativecommons.org/ns#"
   xmlns:rdf="http://www.w3.org/1999/02/22-rdf-syntax-ns#"
   xmlns:svg="http://www.w3.org/2000/svg"
   xmlns="http://www.w3.org/2000/svg"
   xmlns:sodipodi="http://sodipodi.sourceforge.net/DTD/sodipodi-0.dtd"
   xmlns:inkscape="http://www.inkscape.org/namespaces/inkscape"
   width="18.697899mm"
   height="17.259056mm"
   viewBox="0 0 18.697899 17.259056"
   version="1.1"
   id="svg8"
   inkscape:version="0.92.1 r15371"
   sodipodi:docname="combined foods.svg">
  <defs
     id="defs2" />
  <sodipodi:namedview
     id="base"
     pagecolor="#ffffff"
     bordercolor="#666666"
     borderopacity="1.0"
     inkscape:pageopacity="0.0"
     inkscape:pageshadow="2"
     inkscape:zoom="3.959798"
     inkscape:cx="48.408733"
     inkscape:cy="14.330097"
     inkscape:document-units="mm"
     inkscape:current-layer="layer1"
     showgrid="false"
     fit-margin-top="0"
     fit-margin-left="0"
     fit-margin-right="0"
     fit-margin-bottom="0"
     inkscape:window-width="1920"
     inkscape:window-height="1001"
     inkscape:window-x="-9"
     inkscape:window-y="-9"
     inkscape:window-maximized="1" />
  <metadata
     id="metadata5">
    <rdf:RDF>
      <cc:Work
         rdf:about="">
        <dc:format>image/svg+xml</dc:format>
        <dc:type
           rdf:resource="http://purl.org/dc/dcmitype/StillImage" />
        <dc:title></dc:title>
      </cc:Work>
    </rdf:RDF>
  </metadata>
  <g
     inkscape:label="Layer 1"
     inkscape:groupmode="layer"
     id="layer1"
     transform="translate(-32.383749,-57.491975)">
    <g
       id="g4546"
       transform="matrix(0.26458333,0,0,0.26458333,43.15483,66.426975)"
       style="fill:#dddddd;fill-opacity:1">
      <g
         id="g4489"
         style="fill:#dddddd;fill-opacity:1">
        <path
           id="path4485"
           d="m 22.557,31.461 c -1.428,0 -2.589,-1.162 -2.589,-2.59 L 20.715,13.177 C 18.54,12.361 17.255,9.993 17.255,6.75 17.255,3.028 19.633,0 22.557,0 c 2.923,0 5.302,3.028 5.302,6.75 0,3.243 -1.285,5.61 -3.459,6.427 l 0.746,15.671 c 0,1.451 -1.161,2.613 -2.589,2.613 z M 22.557,1 c -2.372,0 -4.302,2.579 -4.302,5.75 0,2.954 1.164,5.044 3.112,5.589 0.225,0.063 0.376,0.272 0.365,0.505 l -0.765,16.051 c 0,0.854 0.713,1.566 1.59,1.566 0.876,0 1.589,-0.713 1.589,-1.59 L 23.382,12.844 c -0.011,-0.232 0.14,-0.442 0.365,-0.505 C 25.696,11.794 26.859,9.704 26.859,6.75 26.859,3.579 24.929,1 22.557,1 Z"
           inkscape:connector-curvature="0"
           style="fill:#dddddd;fill-opacity:1" />
        <path
           id="path4487"
           d="m 8.904,31.461 c -1.428,0 -2.589,-1.162 -2.589,-2.59 L 7.062,13.168 C 5.006,12.424 3.602,10.461 3.602,8.262 V 0.5 C 3.602,0.224 3.826,0 4.102,0 h 2.239 c 0.276,0 0.5,0.224 0.5,0.5 V 7.211 H 7.396 V 0.5 C 7.396,0.224 7.62,0 7.896,0 h 2.016 c 0.276,0 0.5,0.224 0.5,0.5 v 6.711 h 0.555 V 0.5 c 0,-0.276 0.224,-0.5 0.5,-0.5 h 2.239 c 0.276,0 0.5,0.224 0.5,0.5 v 7.762 c 0,2.199 -1.404,4.162 -3.46,4.906 l 0.747,15.68 c 0,1.451 -1.161,2.613 -2.589,2.613 z M 4.602,1 v 7.262 c 0,1.886 1.279,3.558 3.111,4.065 0.225,0.063 0.377,0.271 0.366,0.505 L 7.315,28.895 c 0,0.854 0.713,1.566 1.589,1.566 0.876,0 1.589,-0.713 1.589,-1.59 L 9.729,12.832 c -0.011,-0.233 0.141,-0.442 0.366,-0.505 1.832,-0.508 3.111,-2.18 3.111,-4.065 V 1 h -1.239 v 6.711 c 0,0.276 -0.224,0.5 -0.5,0.5 H 9.912 c -0.276,0 -0.5,-0.224 -0.5,-0.5 V 1 H 8.396 v 6.711 c 0,0.276 -0.224,0.5 -0.5,0.5 H 6.342 c -0.276,0 -0.5,-0.224 -0.5,-0.5 V 1 Z"
           inkscape:connector-curvature="0"
           style="fill:#dddddd;fill-opacity:1" />
      </g>
      <g
         id="g4491"
         style="fill:#dddddd;fill-opacity:1" />
      <g
         id="g4493"
         style="fill:#dddddd;fill-opacity:1" />
      <g
         id="g4495"
         style="fill:#dddddd;fill-opacity:1" />
      <g
         id="g4497"
         style="fill:#dddddd;fill-opacity:1" />
      <g
         id="g4499"
         style="fill:#dddddd;fill-opacity:1" />
      <g
         id="g4501"
         style="fill:#dddddd;fill-opacity:1" />
      <g
         id="g4503"
         style="fill:#dddddd;fill-opacity:1" />
      <g
         id="g4505"
         style="fill:#dddddd;fill-opacity:1" />
      <g
         id="g4507"
         style="fill:#dddddd;fill-opacity:1" />
      <g
         id="g4509"
         style="fill:#dddddd;fill-opacity:1" />
      <g
         id="g4511"
         style="fill:#dddddd;fill-opacity:1" />
      <g
         id="g4513"
         style="fill:#dddddd;fill-opacity:1" />
      <g
         id="g4515"
         style="fill:#dddddd;fill-opacity:1" />
      <g
         id="g4517"
         style="fill:#dddddd;fill-opacity:1" />
      <g
         id="g4519"
         style="fill:#dddddd;fill-opacity:1" />
    </g>
    <g
       id="g4612"
       transform="matrix(0.26458333,0,0,0.26458333,32.384301,66.223634)"
       style="fill:#dddddd;fill-opacity:1">
      <g
         id="g4554"
         style="fill:#dddddd;fill-opacity:1">
        <path
           id="path4548"
           d="M 8.515,28.969 C 8.208,28.969 7.903,28.95 7.598,28.913 3.785,28.447 3.607,25.684 3.45,23.245 3.347,21.661 3.242,20.022 2.281,18.808 0.685,16.79 -0.937,12.076 0.649,8.362 1.408,6.584 3.232,4.379 7.612,3.963 v 0 c 2.94,-0.277 5.397,0.423 7.282,2.09 2.401,2.122 3.796,5.806 3.928,10.372 0.105,3.686 -1.521,7.518 -4.246,10 -1.821,1.66 -3.943,2.544 -6.061,2.544 z M 7.706,4.959 C 4.583,5.255 2.517,6.532 1.569,8.755 c -1.364,3.195 -0.008,7.531 1.497,9.433 1.153,1.459 1.274,3.337 1.382,4.993 0.163,2.54 0.282,4.374 3.271,4.74 2.123,0.261 4.317,-0.535 6.184,-2.235 2.515,-2.292 4.017,-5.829 3.919,-9.231 C 17.699,12.168 16.425,8.74 14.232,6.803 12.562,5.326 10.365,4.704 7.706,4.959 Z"
           inkscape:connector-curvature="0"
           style="fill:#dddddd;fill-opacity:1" />
        <path
           id="path4550"
           d="m 7.362,13.901 c -1.475,0 -2.675,-1.2 -2.675,-2.675 0,-1.475 1.2,-2.675 2.675,-2.675 1.475,0 2.674,1.2 2.674,2.675 0,1.475 -1.199,2.675 -2.674,2.675 z m 0,-4.349 c -0.924,0 -1.675,0.751 -1.675,1.675 0,0.924 0.751,1.675 1.675,1.675 0.923,0 1.674,-0.751 1.674,-1.675 0,-0.924 -0.751,-1.675 -1.674,-1.675 z"
           inkscape:connector-curvature="0"
           style="fill:#dddddd;fill-opacity:1" />
        <path
           id="path4552"
           d="m 10.972,29.094 c -0.831,0 -1.708,-0.04 -2.637,-0.126 -0.275,-0.025 -0.478,-0.27 -0.452,-0.544 0.025,-0.276 0.273,-0.469 0.544,-0.452 7.121,0.662 11.104,-1.508 13.781,-3.473 2.55,-1.87 5.227,-2.847 9.193,-3.349 1.154,-1.968 0.361,-3.658 0.026,-4.22 C 30.432,16.886 27.099,16.522 25.361,13.66 23.458,10.524 18.867,5.222 9.52,4.929 9.244,4.921 9.027,4.69 9.036,4.414 9.045,4.139 9.286,3.908 9.552,3.93 c 9.818,0.308 14.655,5.903 16.665,9.212 1.709,2.815 5.443,2.796 5.476,2.795 0.203,0 0.312,0.072 0.407,0.198 0.021,0.027 1.995,2.704 0.021,5.754 -0.081,0.125 -0.213,0.207 -0.36,0.225 -3.914,0.471 -6.511,1.396 -8.961,3.192 -2.469,1.81 -5.991,3.788 -11.828,3.788 z"
           inkscape:connector-curvature="0"
           style="fill:#dddddd;fill-opacity:1" />
      </g>
      <g
         id="g4556"
         style="fill:#dddddd;fill-opacity:1" />
      <g
         id="g4558"
         style="fill:#dddddd;fill-opacity:1" />
      <g
         id="g4560"
         style="fill:#dddddd;fill-opacity:1" />
      <g
         id="g4562"
         style="fill:#dddddd;fill-opacity:1" />
      <g
         id="g4564"
         style="fill:#dddddd;fill-opacity:1" />
      <g
         id="g4566"
         style="fill:#dddddd;fill-opacity:1" />
      <g
         id="g4568"
         style="fill:#dddddd;fill-opacity:1" />
      <g
         id="g4570"
         style="fill:#dddddd;fill-opacity:1" />
      <g
         id="g4572"
         style="fill:#dddddd;fill-opacity:1" />
      <g
         id="g4574"
         style="fill:#dddddd;fill-opacity:1" />
      <g
         id="g4576"
         style="fill:#dddddd;fill-opacity:1" />
      <g
         id="g4578"
         style="fill:#dddddd;fill-opacity:1" />
      <g
         id="g4580"
         style="fill:#dddddd;fill-opacity:1" />
      <g
         id="g4582"
         style="fill:#dddddd;fill-opacity:1" />
      <g
         id="g4584"
         style="fill:#dddddd;fill-opacity:1" />
    </g>
    <g
       id="g4684"
       transform="matrix(0.26458333,0,0,0.26458333,32.383671,56.890844)"
       style="fill:#dddddd;fill-opacity:1">
      <g
         id="g4624"
         style="fill:#dddddd;fill-opacity:1">
        <path
           id="path4614"
           d="M 16.501,17.276 C 11.31,17.276 6.189,15.524 2.085,12.342 0.949,11.462 0.225,10.193 0.044,8.767 -0.137,7.342 0.248,5.931 1.128,4.795 2.945,2.452 6.331,2.024 8.675,3.839 c 4.608,3.573 11.047,3.572 15.653,0 1.136,-0.88 2.544,-1.267 3.972,-1.084 1.425,0.181 2.694,0.905 3.574,2.04 0.88,1.136 1.265,2.547 1.084,3.972 -0.181,1.426 -0.905,2.695 -2.041,3.575 -4.105,3.182 -9.225,4.934 -14.416,4.934 z M 5.384,3.714 C 4.075,3.714 2.78,4.297 1.918,5.408 1.201,6.332 0.888,7.48 1.035,8.64 c 0.147,1.16 0.737,2.194 1.662,2.91 3.93,3.047 8.832,4.725 13.803,4.725 4.971,0 9.873,-1.678 13.803,-4.725 C 31.228,10.834 31.818,9.8 31.965,8.64 32.112,7.48 31.799,6.331 31.082,5.408 30.366,4.484 29.333,3.894 28.173,3.747 27.011,3.602 25.864,3.914 24.941,4.63 19.97,8.48 13.03,8.48 8.061,4.63 7.265,4.013 6.321,3.714 5.384,3.714 Z"
           inkscape:connector-curvature="0"
           style="fill:#dddddd;fill-opacity:1" />
        <g
           id="g4620"
           style="fill:#dddddd;fill-opacity:1">
          <path
             id="path4616"
             d="m 16.501,30.29 c -0.276,0 -0.5,-0.224 -0.5,-0.5 V 17.241 c 0,-0.276 0.224,-0.5 0.5,-0.5 0.276,0 0.5,0.224 0.5,0.5 V 29.79 c 0,0.277 -0.224,0.5 -0.5,0.5 z"
             inkscape:connector-curvature="0"
             style="fill:#dddddd;fill-opacity:1" />
          <path
             id="path4618"
             d="m 16.501,22.918 c -2.063,0 -3.74,-1.594 -3.74,-3.554 v -2.329 c 0,-0.276 0.224,-0.5 0.5,-0.5 0.276,0 0.5,0.224 0.5,0.5 v 2.329 c 0,1.408 1.229,2.554 2.74,2.554 1.512,0 2.741,-1.146 2.741,-2.554 v -2.329 c 0,-0.276 0.224,-0.5 0.5,-0.5 0.276,0 0.5,0.224 0.5,0.5 v 2.329 c 0,1.96 -1.679,3.554 -3.741,3.554 z"
             inkscape:connector-curvature="0"
             style="fill:#dddddd;fill-opacity:1" />
        </g>
        <path
           id="path4622"
           d="m 12.066,14.647 c -0.027,0 -0.055,-0.002 -0.083,-0.007 C 8.4,14.045 4.617,11.418 4.458,11.306 4.232,11.148 4.177,10.836 4.336,10.61 c 0.156,-0.226 0.467,-0.283 0.696,-0.122 0.037,0.025 3.759,2.608 7.115,3.166 0.272,0.045 0.456,0.303 0.411,0.575 -0.04,0.244 -0.252,0.418 -0.492,0.418 z"
           inkscape:connector-curvature="0"
           style="fill:#dddddd;fill-opacity:1" />
      </g>
      <g
         id="g4626"
         style="fill:#dddddd;fill-opacity:1" />
      <g
         id="g4628"
         style="fill:#dddddd;fill-opacity:1" />
      <g
         id="g4630"
         style="fill:#dddddd;fill-opacity:1" />
      <g
         id="g4632"
         style="fill:#dddddd;fill-opacity:1" />
      <g
         id="g4634"
         style="fill:#dddddd;fill-opacity:1" />
      <g
         id="g4636"
         style="fill:#dddddd;fill-opacity:1" />
      <g
         id="g4638"
         style="fill:#dddddd;fill-opacity:1" />
      <g
         id="g4640"
         style="fill:#dddddd;fill-opacity:1" />
      <g
         id="g4642"
         style="fill:#dddddd;fill-opacity:1" />
      <g
         id="g4644"
         style="fill:#dddddd;fill-opacity:1" />
      <g
         id="g4646"
         style="fill:#dddddd;fill-opacity:1" />
      <g
         id="g4648"
         style="fill:#dddddd;fill-opacity:1" />
      <g
         id="g4650"
         style="fill:#dddddd;fill-opacity:1" />
      <g
         id="g4652"
         style="fill:#dddddd;fill-opacity:1" />
      <g
         id="g4654"
         style="fill:#dddddd;fill-opacity:1" />
    </g>
    <g
       id="g4750"
       transform="matrix(0.26458333,0,0,0.26458333,43.552068,57.491876)"
       style="fill:#dddddd;fill-opacity:1">
      <g
         id="g4692"
         style="fill:#dddddd;fill-opacity:1">
        <path
           id="path4686"
           d="m 13.271,20.469 c -1.59,0 -2.98,-0.394 -3.934,-1.348 v 0 C 5.797,15.58 9.967,6.017 13.403,2.58 c 3.439,-3.44 9.036,-3.439 12.476,0 3.439,3.439 3.439,9.036 0,12.476 -2.511,2.511 -8.294,5.413 -12.608,5.413 z m -3.227,-2.055 c 2.972,2.97 11.967,-0.906 15.127,-4.065 3.049,-3.05 3.049,-8.012 0,-11.062 -3.049,-3.049 -8.011,-3.05 -11.062,0 -3.158,3.161 -7.034,12.157 -4.065,15.127 z"
           inkscape:connector-curvature="0"
           style="fill:#dddddd;fill-opacity:1" />
        <path
           id="path4688"
           d="M 6.454,28.457 C 5.609,28.457 4.765,28.136 4.121,27.492 3.528,26.898 3.194,26.12 3.165,25.293 2.338,25.264 1.559,24.931 0.965,24.337 0.343,23.714 0,22.886 0,22.004 0,21.123 0.343,20.295 0.966,19.672 2.184,18.455 4.289,18.421 5.544,19.587 l 2.831,-2.831 c 0.195,-0.195 0.512,-0.195 0.707,0 0.195,0.195 0.195,0.512 0,0.707 l -3.209,3.21 C 5.77,20.775 5.628,20.829 5.485,20.819 5.34,20.809 5.208,20.737 5.121,20.622 5.035,20.508 4.987,20.44 4.927,20.381 4.057,19.51 2.545,19.511 1.675,20.38 1.239,20.814 1,21.391 1,22.005 c 0,0.613 0.239,1.19 0.673,1.625 0.511,0.511 1.225,0.744 1.949,0.641 0.155,-0.021 0.313,0.03 0.424,0.142 0.111,0.111 0.164,0.268 0.142,0.424 -0.103,0.729 0.13,1.438 0.641,1.949 0.896,0.896 2.355,0.896 3.251,0 0.896,-0.896 0.896,-2.354 0,-3.251 C 8.02,23.475 7.954,23.428 7.889,23.379 7.773,23.291 7.676,23.14 7.666,22.995 7.656,22.85 7.684,22.69 7.787,22.588 l 3.209,-3.21 c 0.195,-0.195 0.512,-0.195 0.707,0 0.195,0.195 0.195,0.512 0,0.707 l -2.831,2.831 c 1.201,1.292 1.172,3.32 -0.085,4.577 -0.643,0.642 -1.488,0.964 -2.333,0.964 z"
           inkscape:connector-curvature="0"
           style="fill:#dddddd;fill-opacity:1" />
        <path
           id="path4690"
           d="m 24.989,10.531 c -0.081,0 -0.163,-0.02 -0.239,-0.062 -0.242,-0.131 -0.331,-0.433 -0.201,-0.675 0.032,-0.063 0.699,-1.382 -0.283,-3.16 -0.133,-0.241 -0.045,-0.546 0.196,-0.679 0.242,-0.136 0.546,-0.046 0.68,0.196 1.259,2.282 0.327,4.044 0.286,4.118 -0.09,0.168 -0.261,0.262 -0.439,0.262 z"
           inkscape:connector-curvature="0"
           style="fill:#dddddd;fill-opacity:1" />
      </g>
      <g
         id="g4694"
         style="fill:#dddddd;fill-opacity:1" />
      <g
         id="g4696"
         style="fill:#dddddd;fill-opacity:1" />
      <g
         id="g4698"
         style="fill:#dddddd;fill-opacity:1" />
      <g
         id="g4700"
         style="fill:#dddddd;fill-opacity:1" />
      <g
         id="g4702"
         style="fill:#dddddd;fill-opacity:1" />
      <g
         id="g4704"
         style="fill:#dddddd;fill-opacity:1" />
      <g
         id="g4706"
         style="fill:#dddddd;fill-opacity:1" />
      <g
         id="g4708"
         style="fill:#dddddd;fill-opacity:1" />
      <g
         id="g4710"
         style="fill:#dddddd;fill-opacity:1" />
      <g
         id="g4712"
         style="fill:#dddddd;fill-opacity:1" />
      <g
         id="g4714"
         style="fill:#dddddd;fill-opacity:1" />
      <g
         id="g4716"
         style="fill:#dddddd;fill-opacity:1" />
      <g
         id="g4718"
         style="fill:#dddddd;fill-opacity:1" />
      <g
         id="g4720"
         style="fill:#dddddd;fill-opacity:1" />
      <g
         id="g4722"
         style="fill:#dddddd;fill-opacity:1" />
    </g>
  </g>
</svg>
