<?xml version="1.0" encoding="UTF-8" standalone="no"?>
<!-- Created with Inkscape (http://www.inkscape.org/) -->

<svg
   xmlns:dc="http://purl.org/dc/elements/1.1/"
   xmlns:cc="http://creativecommons.org/ns#"
   xmlns:rdf="http://www.w3.org/1999/02/22-rdf-syntax-ns#"
   xmlns:svg="http://www.w3.org/2000/svg"
   xmlns="http://www.w3.org/2000/svg"
   xmlns:sodipodi="http://sodipodi.sourceforge.net/DTD/sodipodi-0.dtd"
   xmlns:inkscape="http://www.inkscape.org/namespaces/inkscape"
   width="144.6002mm"
   height="158.77362mm"
   viewBox="0 0 144.6002 158.77362"
   version="1.1"
   id="svg8"
   sodipodi:docname="sleeping-oven.svg"
   inkscape:version="0.92.1 r15371">
  <defs
     id="defs2" />
  <sodipodi:namedview
     id="base"
     pagecolor="#ffffff"
     bordercolor="#666666"
     borderopacity="1.0"
     inkscape:pageopacity="0.0"
     inkscape:pageshadow="2"
     inkscape:zoom="0.98994949"
     inkscape:cx="77.655361"
     inkscape:cy="313.1741"
     inkscape:document-units="mm"
     inkscape:current-layer="layer1"
     showgrid="false"
     fit-margin-top="0"
     fit-margin-left="0"
     fit-margin-right="0"
     fit-margin-bottom="0"
     inkscape:window-width="1920"
     inkscape:window-height="1017"
     inkscape:window-x="-8"
     inkscape:window-y="139"
     inkscape:window-maximized="1" />
  <metadata
     id="metadata5">
    <rdf:RDF>
      <cc:Work
         rdf:about="">
        <dc:format>image/svg+xml</dc:format>
        <dc:type
           rdf:resource="http://purl.org/dc/dcmitype/StillImage" />
        <dc:title></dc:title>
      </cc:Work>
    </rdf:RDF>
  </metadata>
  <g
     inkscape:label="Layer 1"
     inkscape:groupmode="layer"
     id="layer1"
     transform="translate(-37.431165,-36.917788)">
    <rect
       id="rect3680"
       width="111.98593"
       height="108.51143"
       x="38.754082"
       y="85.857071"
       style="fill:none;stroke:#000000;stroke-width:2.64583325;stroke-miterlimit:4;stroke-dasharray:none;stroke-opacity:1"
       ry="10.423513" />
    <rect
       style="fill:none;stroke:#000000;stroke-width:2.86911297;stroke-linejoin:round;stroke-miterlimit:4;stroke-dasharray:none;stroke-opacity:1"
       id="rect4511"
       width="79.379051"
       height="49.028027"
       x="55.057522"
       y="134.91696"
       ry="0" />
    <path
       style="fill:none;stroke:#000000;stroke-width:2.64583325;stroke-linecap:round;stroke-linejoin:miter;stroke-miterlimit:4;stroke-dasharray:none;stroke-opacity:1"
       d="M 55.057521,125.9475 H 134.43657"
       id="path4513"
       inkscape:connector-curvature="0"
       sodipodi:nodetypes="cc" />
    <path
       style="fill:none;stroke:#000000;stroke-width:3.1395216;stroke-linecap:butt;stroke-linejoin:miter;stroke-miterlimit:4;stroke-dasharray:none;stroke-opacity:1"
       d="M 38.86427,117.46131 H 150.62982"
       id="path4513-0"
       inkscape:connector-curvature="0"
       sodipodi:nodetypes="cc" />
    <rect
       style="fill:none;stroke:#000000;stroke-width:2.77247953;stroke-linecap:butt;stroke-linejoin:round;stroke-miterlimit:4;stroke-dasharray:none;stroke-opacity:1"
       id="rect4530"
       width="25.702381"
       height="11.413238"
       x="81.784599"
       y="100.75641" />
    <path
       style="fill:none;stroke:#000000;stroke-width:2.64583325;stroke-linecap:butt;stroke-linejoin:round;stroke-miterlimit:4;stroke-dasharray:none;stroke-opacity:1"
       id="path4532"
       sodipodi:type="arc"
       sodipodi:cx="61.326637"
       sodipodi:cy="97.145088"
       sodipodi:rx="6.3311014"
       sodipodi:ry="6.3311014"
       sodipodi:start="0"
       sodipodi:end="3.1415927"
       sodipodi:open="true"
       d="m 67.657739,97.145088 a 6.3311014,6.3311014 0 0 1 -3.165551,5.482892 6.3311014,6.3311014 0 0 1 -6.331102,0 6.3311014,6.3311014 0 0 1 -3.16555,-5.482892" />
    <path
       style="fill:none;stroke:#000000;stroke-width:2.64583325;stroke-linecap:butt;stroke-linejoin:round;stroke-miterlimit:4;stroke-dasharray:none;stroke-opacity:1"
       id="path4532-3"
       sodipodi:type="arc"
       sodipodi:cx="127.94494"
       sodipodi:cy="97.428574"
       sodipodi:rx="6.3311014"
       sodipodi:ry="6.3311014"
       sodipodi:start="0"
       sodipodi:end="3.1415927"
       sodipodi:open="true"
       d="m 134.27604,97.428574 a 6.3311014,6.3311014 0 0 1 -3.16555,5.482896 6.3311014,6.3311014 0 0 1 -6.3311,0 6.3311014,6.3311014 0 0 1 -3.16555,-5.482897" />
    <g
       aria-label="z"
       style="font-style:normal;font-variant:normal;font-weight:normal;font-stretch:normal;font-size:10.58333302px;line-height:1.25;font-family:'Arial Rounded MT Bold';-inkscape-font-specification:'Arial Rounded MT Bold, Normal';font-variant-ligatures:normal;font-variant-caps:normal;font-variant-numeric:normal;font-feature-settings:normal;text-align:start;letter-spacing:0px;word-spacing:0px;writing-mode:lr-tb;text-anchor:start;fill:#000000;fill-opacity:1;stroke:none;stroke-width:0.26458332"
       id="text4551">
      <path
         d="m 155.37553,76.619207 -2.58382,2.888712 h 2.76469 q 0.33589,0 0.50643,0.160197 0.17053,0.15503 0.17053,0.403076 0,0.237712 -0.17053,0.387574 -0.16537,0.149861 -0.50643,0.149861 h -3.82406 q -0.40308,0 -0.60461,-0.1757 -0.19637,-0.175699 -0.19637,-0.48059 0,-0.180868 0.13952,-0.361735 0.13953,-0.186036 0.57878,-0.676962 0.46509,-0.516764 0.84232,-0.935343 0.38241,-0.418579 0.70797,-0.780314 0.32556,-0.366903 0.53744,-0.620117 0.21704,-0.253215 0.34623,-0.434082 h -2.09807 q -0.43408,0 -0.65629,-0.07751 -0.2222,-0.07752 -0.2222,-0.408244 0,-0.242879 0.16536,-0.387573 0.17053,-0.144694 0.48059,-0.144694 h 3.24011 q 0.44959,0 0.6873,0.134359 0.24288,0.129191 0.24288,0.470255 0,0.113688 -0.0465,0.237712 -0.0465,0.118856 -0.10335,0.19637 -0.0568,0.07751 -0.15503,0.191203 -0.0982,0.108521 -0.24288,0.26355 z"
         style="font-style:normal;font-variant:normal;font-weight:normal;font-stretch:normal;font-size:10.58333302px;font-family:'Arial Rounded MT Bold';-inkscape-font-specification:'Arial Rounded MT Bold, Normal';font-variant-ligatures:normal;font-variant-caps:normal;font-variant-numeric:normal;font-feature-settings:normal;text-align:start;writing-mode:lr-tb;text-anchor:start;stroke-width:0.26458332"
         id="path4604" />
    </g>
    <g
       aria-label="z"
       style="font-style:normal;font-variant:normal;font-weight:normal;font-stretch:normal;font-size:16.82044411px;line-height:1.25;font-family:'Arial Rounded MT Bold';-inkscape-font-specification:'Arial Rounded MT Bold, Normal';font-variant-ligatures:normal;font-variant-caps:normal;font-variant-numeric:normal;font-feature-settings:normal;text-align:start;letter-spacing:0px;word-spacing:0px;writing-mode:lr-tb;text-anchor:start;fill:#000000;fill-opacity:1;stroke:none;stroke-width:0.42051119"
       id="text4551-2">
      <path
         d="m 167.63244,62.602154 -4.10656,4.591127 h 4.39402 q 0.53385,0 0.80488,0.254606 0.27103,0.246393 0.27103,0.640623 0,0.377802 -0.27103,0.615983 -0.26282,0.23818 -0.80488,0.23818 h -6.0777 q -0.64062,0 -0.96094,-0.279246 -0.31209,-0.279246 -0.31209,-0.763819 0,-0.287459 0.22175,-0.574917 0.22175,-0.295672 0.91987,-1.075918 0.73918,-0.82131 1.33873,-1.486572 0.60777,-0.665262 1.1252,-1.240179 0.51743,-0.583131 0.85416,-0.985573 0.34495,-0.402442 0.55028,-0.689901 h -3.33452 q -0.6899,0 -1.04306,-0.123197 -0.35317,-0.123196 -0.35317,-0.648835 0,-0.386016 0.26282,-0.615983 0.27103,-0.229967 0.76382,-0.229967 h 5.14962 q 0.71454,0 1.09234,0.21354 0.38602,0.205328 0.38602,0.747393 0,0.180689 -0.0739,0.377803 -0.0739,0.188902 -0.16426,0.312098 -0.0904,0.123197 -0.2464,0.303885 -0.15604,0.172476 -0.38601,0.418869 z"
         style="font-style:normal;font-variant:normal;font-weight:normal;font-stretch:normal;font-size:16.82044411px;font-family:'Arial Rounded MT Bold';-inkscape-font-specification:'Arial Rounded MT Bold, Normal';font-variant-ligatures:normal;font-variant-caps:normal;font-variant-numeric:normal;font-feature-settings:normal;text-align:start;writing-mode:lr-tb;text-anchor:start;stroke-width:0.42051119"
         id="path4601" />
    </g>
    <g
       aria-label="z"
       style="font-style:normal;font-variant:normal;font-weight:normal;font-stretch:normal;font-size:28.25503159px;line-height:1.25;font-family:'Arial Rounded MT Bold';-inkscape-font-specification:'Arial Rounded MT Bold, Normal';font-variant-ligatures:normal;font-variant-caps:normal;font-variant-numeric:normal;font-feature-settings:normal;text-align:start;letter-spacing:0px;word-spacing:0px;writing-mode:lr-tb;text-anchor:start;fill:#000000;fill-opacity:1;stroke:none;stroke-width:0.70637894"
       id="text4551-2-4">
      <path
         d="m 179.74117,40.904948 -6.8982,7.712189 h 7.38107 q 0.89677,0 1.35205,0.427689 0.45528,0.413892 0.45528,1.076119 0,0.634635 -0.45528,1.03473 -0.44149,0.400096 -1.35205,0.400096 H 170.0147 q -1.07612,0 -1.61417,-0.469078 -0.52427,-0.469077 -0.52427,-1.283065 0,-0.482874 0.3725,-0.965748 0.37251,-0.496671 1.5452,-1.807329 1.24168,-1.37964 2.24882,-2.497149 1.02093,-1.117508 1.8901,-2.083257 0.86918,-0.979544 1.43483,-1.655568 0.57945,-0.676024 0.92436,-1.158898 h -5.60134 q -1.1589,0 -1.75215,-0.206946 -0.59324,-0.206946 -0.59324,-1.089915 0,-0.648431 0.44148,-1.034731 0.45529,-0.386299 1.28307,-0.386299 h 8.65034 q 1.20029,0 1.83493,0.358707 0.64843,0.34491 0.64843,1.255472 0,0.303521 -0.12417,0.634635 -0.12417,0.317317 -0.27593,0.524263 -0.15176,0.206946 -0.41389,0.510467 -0.26213,0.289724 -0.64843,0.703616 z"
         style="font-style:normal;font-variant:normal;font-weight:normal;font-stretch:normal;font-size:28.25503159px;font-family:'Arial Rounded MT Bold';-inkscape-font-specification:'Arial Rounded MT Bold, Normal';font-variant-ligatures:normal;font-variant-caps:normal;font-variant-numeric:normal;font-feature-settings:normal;text-align:start;writing-mode:lr-tb;text-anchor:start;stroke-width:0.70637894"
         id="path4598" />
    </g>
  </g>
</svg>
